HIERARCHY
ROOT hip
{
	OFFSET 0.000000 0.000000 0.000000
	CHANNELS 6 Xposition Yposition Zposition Xrotation Zrotation Yrotation 
	JOINT abdomen
	{
		OFFSET 0.000000 3.422050 0.000000
		CHANNELS 3 Xrotation Zrotation Yrotation 
		JOINT chest
		{
			OFFSET 0.000000 8.486693 -0.684411
			CHANNELS 3 Xrotation Zrotation Yrotation 
			JOINT neck
			{
				OFFSET 0.000000 10.266162 -0.273764
				CHANNELS 3 Xrotation Zrotation Yrotation 
				JOINT head
				{
					OFFSET 0.000000 3.148285 0.000000
					CHANNELS 3 Xrotation Zrotation Yrotation 
					End Site
					{
						OFFSET 0.000000 3.148289 0.000000
					}
				}
			}
			JOINT lCollar
			{
				OFFSET 3.422053 6.707223 -0.821293
				CHANNELS 3 Yrotation Zrotation Xrotation 
				JOINT lShldr
				{
					OFFSET 3.285171 0.000000 0.000000
					CHANNELS 3 Zrotation Yrotation Xrotation 
					JOINT lForeArm
					{
						OFFSET 10.129278 0.000000 0.000000
						CHANNELS 3 Yrotation Zrotation Xrotation 
						JOINT lHand
						{
							OFFSET 8.486692 0.000000 0.000000
							CHANNELS 3 Zrotation Yrotation Xrotation 
							End Site
							{
								OFFSET 4.106464 0.000000 0.000000
							}
						}
					}
				}
			}
			JOINT rCollar
			{
				OFFSET -3.558935 6.707223 -0.821293
				CHANNELS 3 Yrotation Zrotation Xrotation 
				JOINT rShldr
				{
					OFFSET -3.148289 0.000000 0.000000
					CHANNELS 3 Zrotation Yrotation Xrotation 
					JOINT rForeArm
					{
						OFFSET -10.266159 0.000000 0.000000
						CHANNELS 3 Yrotation Zrotation Xrotation 
						JOINT rHand
						{
							OFFSET -8.349810 0.000000 0.000000
							CHANNELS 3 Zrotation Yrotation Xrotation 
							End Site
							{
								OFFSET -4.106464 0.000000 0.000000
							}
						}
					}
				}
			}
		}
	}
	JOINT lThigh
	{
		OFFSET 5.338403 -1.642589 1.368821
		CHANNELS 3 Xrotation Zrotation Yrotation 
		JOINT lShin
		{
			OFFSET -2.053232 -20.121670 0.000000
			CHANNELS 3 Xrotation Zrotation Yrotation 
			JOINT lFoot
			{
				OFFSET 0.000000 -19.300380 -1.231939
				CHANNELS 3 Xrotation Yrotation Zrotation 
				End Site
				{
					OFFSET 0.000000 -2.463878 4.653993
				}
			}
		}
	}
	JOINT rThigh
	{
		OFFSET -5.338403 -1.642589 1.368821
		CHANNELS 3 Xrotation Zrotation Yrotation 
		JOINT rShin
		{
			OFFSET 2.053232 -20.121670 0.000000
			CHANNELS 3 Xrotation Zrotation Yrotation 
			JOINT rFoot
			{
				OFFSET 0.000000 -19.300380 -1.231939
				CHANNELS 3 Xrotation Yrotation Zrotation 
				End Site
				{
					OFFSET 0.000000 -2.463878 4.653993
				}
			}
		}
	}
}
MOTION
Frames: 18
Frame Time: 0.049897
0.000000 4.831345 0.000000 -90.001884 0.000000 0.000000 30.466793 0.000000 0.000000 11.577251 -0.107062 -0.414053 17.998348 0.000000 0.000000 2.648311 -0.002329 14.996731 8.607481 0.661943 0.337705 -76.760849 30.290161 0.731476 -68.109360 0.552191 29.178999 -7.002601 0.199413 23.599226 -8.610972 -0.665439 0.337423 76.742165 -30.292879 0.734295 68.795296 -0.500736 29.177975 6.998461 -0.202121 23.599018 -0.822555 19.803667 0.504305 10.208740 -1.981909 -0.080483 13.611595 2.328721 5.489282 -52.002781 -31.002724 -9.001964 129.344330 2.290128 0.117524 18.679640 -1.731586 -5.014312 
0.000000 4.831345 0.000000 -90.001877 0.000000 0.000000 30.513334 0.000000 0.000000 11.171567 -0.105523 -0.402221 17.998348 0.000000 0.000000 2.310334 -0.002310 14.996736 8.607481 0.661943 0.337705 -76.760849 30.290161 0.731476 -67.743965 0.565298 28.922728 -7.002601 0.199413 23.599224 -8.610972 -0.665439 0.337423 76.742165 -30.292879 0.734295 68.466614 -0.512532 28.921955 6.998461 -0.202121 23.599018 -0.822555 19.803667 0.504305 10.208740 -1.981909 -0.080483 13.611595 2.328721 5.489282 -52.002777 -31.002724 -9.001963 129.344330 2.290128 0.117524 18.679640 -1.731586 -5.014312 
0.000000 4.831345 0.000000 -90.001877 0.000000 0.000000 30.559875 0.000000 0.000000 10.765805 -0.103900 -0.390398 17.998348 0.000000 0.000000 1.972213 -0.002291 14.996748 8.607481 0.661943 0.337705 -76.760849 30.290161 0.731476 -67.378448 0.576772 28.666321 -7.002601 0.199413 23.599224 -8.610972 -0.665439 0.337423 76.742165 -30.292879 0.734295 68.137833 -0.522860 28.665833 6.998461 -0.202121 23.599018 -0.822555 19.803667 0.504305 10.208740 -1.981909 -0.080483 13.611595 2.328721 5.489282 -52.002777 -31.002724 -9.001963 129.344330 2.290128 0.117524 18.679640 -1.731586 -5.014312 
0.000000 4.831345 0.000000 -90.001877 0.000000 0.000000 30.606417 0.000000 0.000000 10.359980 -0.102193 -0.378585 17.998348 0.000000 0.000000 1.633952 -0.002272 14.996755 8.607481 0.661943 0.337705 -76.760849 30.290161 0.731476 -67.012810 0.586614 28.409798 -7.002601 0.199413 23.599224 -8.610972 -0.665439 0.337423 76.742165 -30.292879 0.734295 67.808929 -0.531721 28.409603 6.998461 -0.202121 23.599018 -0.822555 19.803667 0.504305 10.208740 -1.981909 -0.080483 13.611595 2.328721 5.489282 -52.002777 -31.002724 -9.001963 129.344330 2.290128 0.117524 18.679640 -1.731586 -5.014312 
0.000000 4.831345 0.000000 -90.001877 0.000000 0.000000 30.652958 0.000000 0.000000 9.954100 -0.100403 -0.366782 17.998348 0.000000 0.000000 1.295558 -0.002253 14.996763 8.607481 0.661943 0.337705 -76.760849 30.290161 0.731476 -66.647064 0.594819 28.153175 -7.002601 0.199413 23.599224 -8.610972 -0.665439 0.337423 76.742165 -30.292879 0.734295 67.479958 -0.539114 28.153297 6.998461 -0.202121 23.599018 -0.822555 19.803667 0.504305 10.208740 -1.981909 -0.080483 13.611595 2.328721 5.489282 -52.002777 -31.002724 -9.001963 129.344330 2.290128 0.117524 18.679640 -1.731586 -5.014312 
0.000000 4.831345 0.000000 -90.001877 0.000000 0.000000 30.699497 0.000000 0.000000 9.548171 -0.098528 -0.354991 17.998348 0.000000 0.000000 0.957036 -0.002234 14.996772 8.607481 0.661943 0.337705 -76.760849 30.290161 0.731476 -66.281227 0.601388 27.896463 -7.002601 0.199413 23.599226 -8.610972 -0.665439 0.337423 76.742165 -30.292879 0.734295 67.150917 -0.545032 27.896917 6.998461 -0.202121 23.599018 -0.822555 19.803667 0.504305 10.208740 -1.981909 -0.080483 13.611595 2.328721 5.489282 -52.002777 -31.002724 -9.001963 129.344330 2.290128 0.117524 18.679640 -1.731586 -5.014312 
0.000000 4.831345 0.000000 -90.001877 0.000000 0.000000 30.746033 0.000000 0.000000 9.142207 -0.096570 -0.343213 17.998348 0.000000 0.000000 0.618393 -0.002215 14.996778 8.607481 0.661943 0.337705 -76.760849 30.290161 0.731476 -65.915352 0.606315 27.639692 -7.002601 0.199413 23.599224 -8.610972 -0.665439 0.337423 76.742165 -30.292879 0.734295 66.821823 -0.549480 27.640486 6.998461 -0.202121 23.599018 -0.822555 19.803667 0.504305 10.208740 -1.981909 -0.080483 13.611595 2.328721 5.489282 -52.002777 -31.002724 -9.001963 129.344330 2.290128 0.117524 18.679640 -1.731586 -5.014312 
0.000000 4.831345 0.000000 -90.001877 0.000000 0.000000 30.792572 0.000000 0.000000 8.736218 -0.094528 -0.331448 17.998348 0.000000 0.000000 0.279634 -0.002196 14.996787 8.607481 0.661943 0.337705 -76.760849 30.290161 0.731476 -65.549423 0.609604 27.382877 -7.002601 0.199413 23.599226 -8.610972 -0.665439 0.337423 76.742165 -30.292879 0.734295 66.492683 -0.552454 27.384012 6.998461 -0.202121 23.599018 -0.822555 19.803667 0.504305 10.208740 -1.981909 -0.080483 13.611595 2.328721 5.489282 -52.002777 -31.002724 -9.001963 129.344330 2.290128 0.117524 18.679640 -1.731586 -5.014312 
0.000000 4.831345 0.000000 -90.001877 0.000000 0.000000 30.839113 0.000000 0.000000 8.330216 -0.092403 -0.319697 17.998348 0.000000 0.000000 -0.059235 -0.002176 14.996796 8.607481 0.661943 0.337705 -76.760849 30.290161 0.731476 -65.183449 0.611254 27.126034 -7.002601 0.199413 23.599224 -8.610972 -0.665439 0.337423 76.742165 -30.292879 0.734295 66.163521 -0.553956 27.127518 6.998461 -0.202121 23.599018 -0.822555 19.803667 0.504305 10.208740 -1.981909 -0.080483 13.611595 2.328721 5.489282 -52.002777 -31.002724 -9.001963 129.344330 2.290128 0.117524 18.679640 -1.731586 -5.014312 
0.000000 4.831345 0.000000 -90.001877 0.000000 0.000000 30.885649 0.000000 0.000000 7.924208 -0.090194 -0.307962 17.998348 0.000000 0.000000 -0.398208 -0.002157 14.996804 8.607481 0.661943 0.337705 -76.760849 30.290161 0.731476 -64.817482 0.611264 26.869181 -7.002601 0.199413 23.599226 -8.610972 -0.665439 0.337423 76.742165 -30.292879 0.734295 65.834366 -0.553981 26.871019 6.998461 -0.202121 23.599018 -0.822555 19.803667 0.504305 10.208740 -1.981909 -0.080483 13.611595 2.328721 5.489282 -52.002777 -31.002724 -9.001963 129.344330 2.290128 0.117524 18.679640 -1.731586 -5.014312 
0.000000 4.831345 0.000000 -90.001877 0.000000 0.000000 30.932188 0.000000 0.000000 7.518208 -0.087903 -0.296243 17.998348 0.000000 0.000000 -0.737279 -0.002138 14.996813 8.607481 0.661943 0.337705 -76.760849 30.290161 0.731476 -64.451523 0.609631 26.612339 -7.002601 0.199413 23.599224 -8.610972 -0.665439 0.337423 76.742165 -30.292879 0.734295 65.505196 -0.552538 26.614529 6.998461 -0.202121 23.599018 -0.822555 19.803667 0.504305 10.208740 -1.981909 -0.080483 13.611595 2.328721 5.489282 -52.002777 -31.002724 -9.001963 129.344330 2.290128 0.117524 18.679640 -1.731586 -5.014312 
0.000000 4.831345 0.000000 -90.001877 0.000000 0.000000 30.978724 0.000000 0.000000 7.112218 -0.085528 -0.284540 17.998348 0.000000 0.000000 -1.076442 -0.002118 14.996815 8.607481 0.661943 0.337705 -76.760849 30.290161 0.731476 -64.085579 0.606360 26.355516 -7.002601 0.199413 23.599226 -8.610972 -0.665439 0.337423 76.742165 -30.292879 0.734295 65.176064 -0.549618 26.358057 6.998461 -0.202121 23.599018 -0.822555 19.803667 0.504305 10.208740 -1.981909 -0.080483 13.611595 2.328721 5.489282 -52.002777 -31.002724 -9.001963 129.344330 2.290128 0.117524 18.679640 -1.731586 -5.014312 
0.000000 4.831345 0.000000 -90.001877 0.000000 0.000000 31.025265 0.000000 0.000000 6.706261 -0.083071 -0.272856 17.998348 0.000000 0.000000 -1.415692 -0.002099 14.996826 8.607481 0.661943 0.337705 -76.760849 30.290161 0.731476 -63.719704 0.601448 26.098755 -7.002601 0.199413 23.599224 -8.610972 -0.665439 0.337423 76.742165 -30.292879 0.734295 64.846954 -0.545228 26.101620 6.998461 -0.202121 23.599018 -0.822555 19.803667 0.504305 10.208740 -1.981909 -0.080483 13.611595 2.328721 5.489282 -52.002777 -31.002724 -9.001963 129.344330 2.290128 0.117524 18.679640 -1.731586 -5.014312 
0.000000 4.831345 0.000000 -90.001877 0.000000 0.000000 31.071798 0.000000 0.000000 6.300337 -0.080532 -0.261190 17.998348 0.000000 0.000000 -1.755022 -0.002079 14.996830 8.607481 0.661943 0.337705 -76.760849 30.290161 0.731476 -63.353878 0.594896 25.842041 -7.002600 0.199413 23.599222 -8.610972 -0.665439 0.337423 76.742165 -30.292879 0.734295 64.517914 -0.539364 25.845238 6.998461 -0.202121 23.599018 -0.822555 19.803667 0.504305 10.208740 -1.981909 -0.080483 13.611595 2.328721 5.489282 -52.002777 -31.002724 -9.001963 129.344330 2.290128 0.117524 18.679640 -1.731586 -5.014312 
0.000000 4.831345 0.000000 -90.001877 0.000000 0.000000 31.118336 0.000000 0.000000 5.894458 -0.077910 -0.249544 17.998348 0.000000 0.000000 -2.094427 -0.002060 14.996839 8.607481 0.661943 0.337705 -76.760849 30.290161 0.731476 -62.988136 0.586709 25.585417 -7.002601 0.199413 23.599224 -8.610972 -0.665439 0.337423 76.742165 -30.292879 0.734295 64.188934 -0.532027 25.588928 6.998461 -0.202121 23.599018 -0.822555 19.803667 0.504305 10.208740 -1.981909 -0.080483 13.611595 2.328721 5.489282 -52.002777 -31.002724 -9.001963 129.344330 2.290128 0.117524 18.679640 -1.731586 -5.014312 
0.000000 4.831345 0.000000 -90.001877 0.000000 0.000000 31.164877 0.000000 0.000000 5.488637 -0.075206 -0.237918 17.998348 0.000000 0.000000 -2.433900 -0.002040 14.996841 8.607481 0.661943 0.337705 -76.760849 30.290161 0.731476 -62.622475 0.576887 25.328890 -7.002600 0.199413 23.599222 -8.610972 -0.665439 0.337423 76.742165 -30.292879 0.734295 63.860050 -0.523222 25.332701 6.998461 -0.202121 23.599018 -0.822555 19.803667 0.504305 10.208740 -1.981909 -0.080483 13.611595 2.328721 5.489282 -52.002777 -31.002724 -9.001963 129.344330 2.290128 0.117524 18.679640 -1.731586 -5.014312 
0.000000 4.831345 0.000000 -90.001877 0.000000 0.000000 31.211407 0.000000 0.000000 5.082884 -0.072420 -0.226314 17.998348 0.000000 0.000000 -2.773436 -0.002020 14.996850 8.607481 0.661943 0.337705 -76.760849 30.290161 0.731476 -62.256962 0.565430 25.072485 -7.002601 0.199413 23.599224 -8.610972 -0.665439 0.337423 76.742165 -30.292879 0.734295 63.531250 -0.512947 25.076571 6.998461 -0.202121 23.599018 -0.822555 19.803667 0.504305 10.208740 -1.981909 -0.080483 13.611595 2.328721 5.489282 -52.002777 -31.002724 -9.001963 129.344330 2.290128 0.117524 18.679640 -1.731586 -5.014312 
0.000000 4.831345 0.000000 -90.001877 0.000000 0.000000 31.257940 0.000000 0.000000 4.677207 -0.069553 -0.214731 17.998348 0.000000 0.000000 -3.113029 -0.002001 14.996857 8.607481 0.661943 0.337705 -76.760849 30.290161 0.731476 -61.891590 0.552338 24.816219 -7.002600 0.199413 23.599222 -8.610972 -0.665439 0.337423 76.742165 -30.292879 0.734295 63.202576 -0.501209 24.820559 6.998461 -0.202121 23.599018 -0.822555 19.803667 0.504305 10.208740 -1.981909 -0.080483 13.611595 2.328721 5.489282 -52.002777 -31.002724 -9.001963 129.344330 2.290128 0.117524 18.679640 -1.731586 -5.014312 
